# xmcd CD database file
#
# Track frame offsets:
#	10818
#	38868
#	86935
#	107239
#	155836
#	198701
#
# Disc length: 3394 seconds
#
# Revision: 0
# Processed by: cddbd v1.5.2PL0 Copyright (c) Steve Scherf et al.
# Submitted via: CDex 1.70beta2
#
DISCID=5c0cb206
DTITLE=McNeely, Jim 5tet - Rain's dance
DYEAR=1976
DGENRE=Jazz
TTITLE0=wishful thinking
TTITLE1=little green men
TTITLE2=tipe tizwe
TTITLE3=rains's dance
TTITLE4=for the crazy one
TTITLE5=rain's dance, take 2
EXTD=YEAR: 1976
EXTT0=
EXTT1=
EXTT2=
EXTT3=
EXTT4=
EXTT5=
PLAYORDER=
